<svg version="1.2" xmlns="http://www.w3.org/2000/svg" viewBox="0 0 1024 1024" width="1024" height="1024">
	<style>
		.s0 { fill: #000000 } 
		.s1 { fill: #6aad68 } 
	</style>
	<path id="background" fill-rule="evenodd" class="s0" d="m1024 0v1024h-1024v-1024z"/>
	<path id="Color Fill 1" fill-rule="evenodd" class="s1" d="m513.46 125.11c121.02 0.24 223.57 1.02 227.89 1.75 4.33 0.73 13.36 3.6 20.09 6.39 6.72 2.79 16.15 7.54 20.95 10.56 4.8 3.02 11.88 8.89 15.72 13.06 3.84 4.16 9.93 10.74 13.53 14.63 3.6 3.88 6.55 7.85 6.55 8.81 0 0.96 0.59 1.72 1.31 1.69 0.72-0.04 3.78 5.27 6.81 11.78 3.02 6.52 6.47 14.99 7.67 18.83 1.19 3.85 2.55 10.53 3.02 14.85 0.47 4.32 1.06 119.84 1.32 256.7 0.4 210.88 0.09 250.72-2.04 261.08-1.65 8.02-4.74 15.7-8.99 22.33-3.56 5.56-7.07 10.08-7.79 10.04-0.72-0.04-1.31 1.11-1.31 2.55 0 1.44-4.12 5.88-9.17 9.87-5.04 3.98-13.09 9.01-17.9 11.16-4.8 2.15-13.44 4.79-19.21 5.86-7.39 1.38-83.73 1.95-259.32 1.95-170.81 0-252.14-0.59-259.33-1.89-5.76-1.04-15.98-4.53-22.7-7.75-6.72-3.23-15.37-8.94-19.21-12.69-3.84-3.75-8.42-8.72-10.18-11.03-1.75-2.31-4.7-7.15-6.54-10.76-1.85-3.6-4.55-11.06-5.99-16.59-2.28-8.71-2.63-43.53-2.64-264.13-0.01-243.32 0.13-254.64 3.29-267.18 1.81-7.2 5.47-17.42 8.13-22.7 2.66-5.28 7.85-13.14 11.53-17.46 3.68-4.33 6.68-8.65 6.66-9.61-0.03-0.96 4.37-5.67 9.77-10.48 5.39-4.8 13.87-11.3 18.84-14.45 4.97-3.14 13.36-7.35 18.65-9.34 5.28-1.99 14.32-4.66 20.08-5.93 8.46-1.87 52.88-2.24 230.51-1.9zm-139.7 35.14c-2.88 1.4-6.62 4.92-8.3 7.81-2.38 4.1-3.05 9.3-3.05 23.6 0 15.42 0.55 19.17 3.49 23.57 1.92 2.89 5.85 6.42 8.73 7.86 4.52 2.26 23.38 2.62 137.08 2.62 122.01 0 132.32-0.23 138.13-3.05 3.46-1.69 7.55-5.02 9.1-7.43 1.9-2.95 3.05-9.73 3.55-20.95 0.62-13.72 0.18-17.76-2.54-23.34-1.81-3.72-5.65-8.21-8.53-9.99-4.98-3.08-11.83-3.24-138.83-3.25-113.85-0.01-134.37 0.36-138.83 2.55zm-128.13 100.92c-3.24 1.18-8.09 4.88-10.78 8.23l-4.89 6.08c-0.27 255.7-0.18 259.55 3.22 267.19 2.09 4.71 5.76 9.24 9.17 11.32 3.12 1.9 14.12 5.44 24.45 7.85 10.32 2.42 29.18 6.32 41.91 8.67 12.72 2.35 37.67 5.85 55.44 7.78 17.77 1.94 44.1 4.48 58.5 5.66 14.82 1.21 55.4 2.11 93.43 2.09 47.95-0.04 76.5-0.88 99.54-2.93 17.77-1.59 41.74-4.03 53.26-5.43 11.53-1.4 21.35-2.45 21.83-2.35 0.48 0.11 2.05-0.22 3.49-0.73 1.44-0.52 17.55-3.8 35.8-7.29 18.25-3.5 34.75-6.67 36.68-7.06 1.92-0.39 6.24-1.89 9.6-3.33 3.36-1.44 8.47-5.09 11.35-8.11l5.24-5.5c0-207.57-0.39-268.99-0.87-270.42-0.48-1.42-4.81-5.16-9.61-8.31l-8.73-5.72c-462.84 0.15-523.48 0.66-528.03 2.31zm31.21 376.55c-3.37 0.69-10.24 3.36-15.28 5.93-7.42 3.77-10.26 6.59-14.85 14.71-5 8.86-5.67 11.58-5.67 23.14 0 10.71 0.79 14.53 4.36 20.95 2.4 4.33 5.94 9.22 7.86 10.89 1.92 1.66 4.48 3.82 5.68 4.8 1.2 0.98 7.09 3.4 13.09 5.39 7.87 2.6 12.87 3.27 17.9 2.39 3.85-0.67 10.92-3.01 15.72-5.21 4.8-2.2 10.32-5.83 12.26-8.07 1.94-2.24 5.09-7.22 6.99-11.06 2.57-5.2 3.45-10.55 3.45-20.96 0-11.26-0.73-15.15-3.77-20.08-2.08-3.36-6-8.36-8.73-11.1-2.73-2.75-7.71-6.38-11.07-8.07-3.36-1.69-9.65-3.49-13.97-3.99-4.33-0.51-10.61-0.35-13.97 0.34zm451.42 0.67c-3.85 1.22-9.74 3.9-13.1 5.95-3.36 2.04-7.69 5.54-9.61 7.77-1.92 2.24-5.07 7.58-6.98 11.88-2.26 5.04-3.48 11.54-3.47 18.34 0.02 8.52 1.06 12.34 5.46 20.12 3.59 6.34 8.33 11.55 13.95 15.33 4.68 3.15 12.44 6.55 17.24 7.55 7.14 1.48 10.78 1.23 19.98-1.36 8.56-2.42 12.87-4.85 17.99-10.17 3.71-3.84 8.38-10.12 10.38-13.97 2.5-4.8 3.64-10.25 3.64-17.46 0.01-6.8-1.23-13.24-3.53-18.34-1.95-4.32-5.79-10.27-8.54-13.23-2.75-2.96-8.14-7.02-11.98-9.02-3.84-2-10.91-4.09-15.72-4.63-5.11-0.58-11.62-0.07-15.71 1.24zm-492.63 185.36c2.01 0.66 8.38 2.25 14.14 3.52 6.55 1.45 22.59 2.34 42.78 2.38 24.03 0.05 33.01 0.65 35.04 2.36 2.2 1.84 2.63 5.51 2.2 18.88-0.29 9.12-0.93 18.36-1.42 20.52-0.49 2.16-3.25 7.46-6.13 11.79-3.03 4.55-8.36 9.51-12.66 11.78-6.63 3.51-9.92 3.93-30.85 3.93-17.27 0-23.58-0.57-24.01-2.18-0.32-1.2-1.37-1.79-2.33-1.31-0.96 0.48-1.75 0.09-1.75-0.87 0-0.96-0.98-1.73-2.18-1.71-1.2 0.02-4.3-2.14-6.89-4.8-2.59-2.67-5.93-7.79-7.43-11.39-2.05-4.96-2.64-12.32-2.44-30.33 0.26-23.31 0.34-23.76 3.93-22.57zm555.52-0.22c1.25 0 2.02 7.66 2.25 22.41 0.21 14.01-0.31 22.41-1.4 22.41-0.96 0-1.61 1.77-1.44 3.93 0.18 2.23-2.37 7.33-5.89 11.79-4.65 5.88-8.79 8.84-16.47 11.78-8.08 3.08-13.87 3.92-27.28 3.92-9.62 0.01-17.41-0.74-17.9-1.73-0.48-0.96-1.66-1.35-2.62-0.87-0.96 0.48-2.53-0.31-3.49-1.75-0.97-1.44-2.34-2.24-3.06-1.78-0.72 0.46-4.12-2.1-7.55-5.68-3.43-3.58-7.16-8.28-8.29-10.44-1.13-2.16-1.67-4.71-1.19-5.68 0.48-0.96 0.29-2.06-0.43-2.44-0.72-0.39-1.51-8.64-1.75-18.34-0.38-15.31-0.03-17.84 2.62-19.19 1.68-0.86 20.74-1.91 42.35-2.32 30.35-0.59 40.47-1.36 44.47-3.39 2.85-1.45 6.03-2.63 7.07-2.63z"/>
</svg>